<svg version="1.1" xmlns="http://www.w3.org/2000/svg" viewBox="0 0 831.4266570053994 400.3333435058594" width="831.4266570053994" height="400.3333435058594">
  <!-- svg-source:excalidraw -->

  <defs>
    <style>
      @font-face {
        font-family: "Virgil";
        src: url("https://excalidraw.com/Virgil.woff2");
      }
      @font-face {
        font-family: "Cascadia";
        src: url("https://excalidraw.com/Cascadia.woff2");
      }
    </style>
  </defs>
  <g transform="translate(147.42665700539948 20.333343505859375) rotate(0 81 108.5)"><path d="M-1.5137121938169003 -0.40130773559212685 C42.888739133253694 -0.3509531013295054, 85.86562664806843 1.3647385843470694, 161.19009814038873 1.2273347042500973 M0.9315681289881468 -0.2748456131666899 C54.98282856792212 1.8078773352876305, 107.8668355125934 0.44442674849182373, 162.63271681778133 -0.12648887746036053 M160.60018231550916 -1.190680057128465 C162.94590504264073 71.73362852106433, 163.01412222131086 140.4940037137713, 161.75552832222266 218.09157800954063 M162.2622989801407 0.01467197249419093 C161.07833526071119 56.95008135077113, 160.01062324378518 111.76559534356834, 161.20298694088615 216.75832271514537 M162.77609727159142 215.99139698967338 C115.04735970012842 217.16156597744674, 64.68920089453458 216.85489590775222, 0.7717243172228336 216.90451666340232 M161.70080028288066 216.33045493252575 C122.5067892946303 217.29565361063928, 81.57362539805472 217.31978771012277, 0.3172588776797056 217.40328447706997 M1.2191600868157744 217.53833628424803 C1.2386635927916587 132.51230217049005, 2.2313141029315053 47.43261194077747, -0.2795048870615601 0.9820286514298081 M-0.11148636241566538 216.93728143341605 C0.43084052754326374 148.51531382053025, -0.042258515469164454 79.36571015614912, -0.5411993924295126 0.510252834990567" stroke="#000000" stroke-width="1" fill="none"></path></g><g transform="translate(159.42665700539948 33.333343505859375) rotate(0 20.5 12.5)"><text x="0" y="18" font-family="Virgil, Segoe UI Emoji" font-size="20px" fill="#000000" text-anchor="start" style="white-space: pre;" direction="ltr">job 1</text></g><g transform="translate(173.42665700539948 77.33334350585938) rotate(0 64 35.5)"><path d="M0.18175503984093666 1.4975281618535519 C32.76184370294214 2.745437733978033, 67.98106581941248 0.3939373420178891, 127.54575977101922 1.3699068687856197 M-0.18115915544331074 -0.7335924040526152 C31.31762814037502 -0.5360168205946685, 62.01329768411816 0.219760955646634, 127.0492062997073 0.2372931707650423 M127.1798149086535 0.8454556129872799 C126.7188293354027 24.64422993902117, 125.94497305316851 49.81601680777967, 126.12863180413842 70.18581756576896 M127.98917488567531 -0.539093567058444 C127.04187689775601 16.015090330131354, 127.07825438732281 32.32188538759947, 127.78049729578197 71.38496469147503 M128.15242693200707 72.80043491348624 C82.32174484506248 71.27175096735358, 33.129463789612046 70.84954897627235, 1.9610804058611393 70.31227132305503 M128.5395119022578 71.77903388626873 C98.99089886657893 71.20936502106488, 69.34070616476237 69.65424115546048, -0.5357600022107363 71.32893328554928 M1.0298889614641666 72.77005883678794 C-1.100683219563216 51.68406926598399, -0.695317394863814 30.233543409779664, -1.2101903222501278 -1.097045335918665 M0.0662264060229063 71.81484513171017 C-0.07020260462537409 47.28583131041378, 0.999183460380882 24.45828118845821, 0.8823557924479246 0.1964572537690401" stroke="#000000" stroke-width="1" fill="none"></path></g><g transform="translate(187.42665700539948 91.33334350585938) rotate(0 29.5 12.5)"><text x="0" y="18" font-family="Virgil, Segoe UI Emoji" font-size="20px" fill="#000000" text-anchor="start" style="white-space: pre;" direction="ltr">step 1</text></g><g transform="translate(172.42665700539948 154.83334350585938) rotate(0 64 35.5)"><path d="M-0.025449421256780624 -0.4690134860575199 C47.76972560659051 0.5945474074780941, 94.26104092374445 -1.097761852890253, 129.76131150498986 0.2676573656499386 M-0.5779145527631044 -0.5133764278143644 C39.774115617200735 1.157987150028348, 78.55331367962063 1.7841510499268771, 128.17560039274395 0.4065581429749727 M128.14039227738976 0.8756218813359737 C127.21380608303471 28.18315615300089, 127.00091247780247 55.76958675645292, 129.32287845388055 71.66584726795554 M127.71351514570415 -0.9104017149657011 C128.13439322406427 26.14295194316656, 127.51306159192697 51.09656080454589, 127.9750695656985 71.5830058325082 M129.99892577901483 69.1462788246572 C85.11102018132806 69.3644908593595, 42.91070995107293 70.90982960924507, 1.7857553698122501 71.19745620712638 M127.52685455791652 71.79636518843472 C92.72913606874644 70.67850967772306, 58.876529807969916 70.14623775608838, 0.808350307866931 70.87771104462445 M1.0702926851809025 71.09820636734366 C0.28631901191547515 42.258610125444825, 0.7685166542418301 14.093173887208096, -0.13850989565253258 1.9888269565999508 M-0.680193679407239 71.37090133316815 C-0.06189390251412985 54.50354882087558, 1.0664578454755247 38.60639780089259, 0.6311921309679747 0.2753539551049471" stroke="#000000" stroke-width="1" fill="none"></path></g><g transform="translate(186.42665700539948 168.83334350585938) rotate(0 35.5 12.5)"><text x="0" y="18" font-family="Virgil, Segoe UI Emoji" font-size="20px" fill="#000000" text-anchor="start" style="white-space: pre;" direction="ltr">step 2</text></g><g transform="translate(198.42665700539948 120.33334350585938) rotate(0 38.5 12.5)"><text x="0" y="18" font-family="Virgil, Segoe UI Emoji" font-size="20px" fill="#000000" text-anchor="start" style="white-space: pre;" direction="ltr">provider</text></g><g transform="translate(198.42665700539948 197.83334350585938) rotate(0 38.5 12.5)"><text x="0" y="18" font-family="Virgil, Segoe UI Emoji" font-size="20px" fill="#000000" text-anchor="start" style="white-space: pre;" direction="ltr">provider</text></g><g transform="translate(147.42665700539948 246.33334350585938) rotate(0 81 72)"><path d="M1.085875477641821 0.2951812483370304 C42.92940797172487 2.8643448052927853, 82.89839441478253 2.2880478797480466, 161.99876245483756 0.2624574638903141 M0.5257512796670198 0.5400208067148924 C56.726700474321845 -0.7184834841266274, 115.30013387612999 0.573331856392324, 161.75375698693097 -0.39648385532200336 M162.31003507599235 1.7031532265245914 C161.73900632813573 35.05063607767225, 160.98762648060918 66.71462054625155, 161.2562129162252 144.65367910638454 M161.53485010750592 0.7495394181460142 C160.7212439481169 55.593150381371395, 162.02614358104765 112.16117044799033, 162.57888250239193 143.2372729610652 M160.5629994533956 142.5466148592532 C106.51559306271373 146.38108375478538, 50.63734179288147 144.96081557679923, 1.1326781176030636 143.50541481748226 M161.03189639933407 144.67109225504103 C98.47714013680815 143.81625259418044, 34.10309562049805 143.68978256482634, 0.9025145638734102 143.280512733385 M-0.32966986671090126 142.5058639980853 C1.8190939714014533 104.64630300477148, 0.7699617435038093 68.11032370701432, 1.0748133324086666 -1.685631301254034 M-0.0667890440672636 144.02605382911864 C-0.01641197346150869 94.5083985667676, -0.5456073417514562 44.10028424374761, -0.7633229028433561 -0.35984315164387226" stroke="#000000" stroke-width="1" fill="none"></path></g><g transform="translate(159.42665700539948 259.3333435058594) rotate(0 26.5 12.5)"><text x="0" y="18" font-family="Virgil, Segoe UI Emoji" font-size="20px" fill="#000000" text-anchor="start" style="white-space: pre;" direction="ltr">job 2</text></g><g transform="translate(173.42665700539948 303.3333435058594) rotate(0 64 35.5)"><path d="M0.6940384767949581 1.931313369423151 C29.45555519089103 1.1661004449427128, 62.05456198677421 0.07354146495461467, 129.08423944935203 1.3224596716463566 M-0.6556390654295683 -0.3533273506909609 C41.82063906081021 0.2472613572329283, 82.32412551529706 -1.0877104879170656, 127.32781975157559 -0.8127716947346926 M128.9093975685537 1.530031654983759 C128.26808017300442 25.925828278623523, 127.36627536820248 53.15851226188243, 129.74414428696036 70.5888758637011 M127.0172533262521 -0.1646884847432375 C127.99189653551205 17.070692057721317, 128.24862607872114 32.087671644985676, 128.40310357697308 71.21276406757534 M127.64587100967765 72.83950814977288 C84.2187817953527 70.48907348170877, 43.774446334689856 69.57524832740427, 1.8786546848714352 71.54029342904687 M128.29424308426678 70.4079206418246 C86.11097497828305 71.140448698923, 45.64986148960888 71.13951081983745, -0.3698467742651701 70.12635944597423 M0.5610515736043453 69.52050945535302 C-0.3710478516109288 46.03133859131485, 1.1918461350910365 19.659572665020825, 0.8914571665227413 -0.47111478075385094 M-0.3556146156042814 71.12689016573131 C-0.8373897626064718 53.23188272211701, -0.715902681555599 36.42938740924001, 0.011226998642086983 -0.06154854781925678" stroke="#000000" stroke-width="1" fill="none"></path></g><g transform="translate(185.42665700539948 317.3333435058594) rotate(0 29.5 12.5)"><text x="0" y="18" font-family="Virgil, Segoe UI Emoji" font-size="20px" fill="#000000" text-anchor="start" style="white-space: pre;" direction="ltr">step 1</text></g><g><g transform="translate(10.426657005399477 49.333343505859375) rotate(0 63.28168415203689 -0.13864231253974424)"><path d="M-0.4266570053994655 -0.7603076376020907 C20.84655856663982 -0.9047630625466505, 105.66450947498282 -0.1297997710605462, 126.99002530947328 -0.0882864154875278 M1.5502093374263497 1.454926907317713 C22.7213417959741 0.9165001324781527, 105.1222580803962 -1.056867862644916, 126.03674313331955 -1.7322115323971958" stroke="#000000" stroke-width="1" fill="none"></path></g><g transform="translate(10.426657005399477 49.333343505859375) rotate(0 63.28168415203689 -0.13864231253974424)"><path d="M96.87199042469877 9.28408758809145 C106.44697622807584 7.564364585644194, 112.60192931954106 2.535945468942601, 128.03461903612128 -2.2645073890220377 M98.44691555865722 8.495228896861034 C109.13291029117998 5.150314697327172, 118.79497100661122 0.16891349348015083, 126.00296063440852 -2.4472164663951848" stroke="#000000" stroke-width="1" fill="none"></path></g><g transform="translate(10.426657005399477 49.333343505859375) rotate(0 63.28168415203689 -0.13864231253974424)"><path d="M96.30695613296206 -11.229340663544141 C106.15395231871297 -7.902919146207006, 112.44784413487483 -7.8872027084480445, 128.03461903612128 -2.2645073890220377 M97.88188126692052 -12.018199354774557 C108.88266651258816 -7.622423188835876, 118.75793457985922 -4.863384956263944, 126.00296063440852 -2.4472164663951848" stroke="#000000" stroke-width="1" fill="none"></path></g></g><g transform="translate(23.426657005399477 10) rotate(0 33 12.5)"><text x="0" y="18" font-family="Virgil, Segoe UI Emoji" font-size="20px" fill="#000000" text-anchor="start" style="white-space: pre;" direction="ltr">trigger</text></g><g transform="translate(406.4266570053995 20.33333969116211) rotate(0 206 78)"><path d="M245.97780500335534 0.8562657213608418 C266.5043685716373 1.1381726424123002, 289.0016771130083 6.14968876170272, 307.56798601703167 10.198645197788466 C326.134294921055 14.247601633874211, 342.93423065813226 19.39895196028123, 357.37565842749535 25.150004337875316 C371.81708619685844 30.9010567154694, 385.4261985276276 37.38345602484976, 394.21655263321037 44.70495946335298 C403.00690673879313 52.0264629018562, 407.9489046915218 60.80562040491708, 410.11778306099194 69.07902496889463 C412.28666143046206 77.35242953287218, 411.48980928407343 86.34140661801469, 407.2298228500312 94.34538684721826 C402.969836415989 102.34936707642184, 395.0135205935197 110.3017067427928, 384.5578644567388 117.10290634411608 C374.1022083199579 123.90410594543935, 360.06115806501816 129.64325514437064, 344.49588602934597 135.15258445515795 C328.9306139936738 140.66191376594526, 310.48442496740915 146.6386816788032, 291.16623224270546 150.15888220883997 C271.84803951800177 153.67908273887673, 249.99703620539742 155.5160679660322, 228.58672968112364 156.27378763537848 C207.17642315684986 157.03150730472476, 183.57752185954251 156.3813808257376, 162.70439309706276 154.7052002249177 C141.831264334583 153.02901962409777, 121.7721082305217 150.40880772772246, 103.34795710624518 146.21670403045903 C84.92380598196866 142.0246003331956, 66.62291523440415 135.62381578641623, 52.15948635140364 129.55257804133714 C37.69605746840314 123.48134029625805, 24.950793604469034 116.94439330807548, 16.56738380824214 109.7892775599845 C8.18397401201525 102.63416181189352, 3.720020688994377 94.82002300477275, 1.859027574042301 86.6218835527913 C-0.0019655409097747434 78.42374410080986, 0.8706542602725973 68.4814120962526, 5.401425118529687 60.600440848095786 C9.932195976786776 52.71946959993897, 18.3244084118029 46.15286065529775, 29.04365272358484 39.33605606385041 C39.762897035366784 32.51925147240306, 53.85277500545105 25.249506835460682, 69.71689098922133 19.69961329941171 C85.5810069729916 14.149719763362736, 104.47679473185427 9.249848157244685, 124.2283486262065 6.036694847556561 C143.9799025205587 2.8235415378684365, 164.750173158638 1.0357823312909318, 188.2262143553347 0.42069344128296393 C211.70225555203137 -0.19439544872500392, 249.23781976372413 1.342880816026612, 265.0845958063865 2.3461615075087536 C280.9313718490489 3.3494421989908956, 284.1726351402169 4.923652366516447, 283.3068706113089 6.440377590175814 M286.8217922382835 7.236535533029951 C306.8450744964217 8.973188759963799, 326.16641352547526 13.731534616908693, 342.3148038142185 18.978108779169766 C358.4631941029618 24.22468294143084, 372.7149284440346 31.640796059031718, 383.712133970743 38.71598050659639 C394.7093394974514 45.79116495416106, 403.51028109804247 53.81519806833374, 408.298036974469 61.42921546455779 C413.0857928508956 69.04323286078184, 414.57633418701096 76.59161190611691, 412.4386692293025 84.40008488394068 C410.301004271594 92.20855786176445, 404.14444458120977 100.81802482132984, 395.4720472282182 108.2800533315004 C386.7996498752266 115.74208184167095, 374.41493267678476 122.9344507617775, 360.4042851113531 129.17225594496398 C346.3936375459214 135.41006112815046, 329.61894369422976 141.55449364116893, 311.4081618356282 145.7068844306193 C293.1973799770267 149.8592752200697, 272.3900246923318 152.52407182592484, 251.13959395974388 154.0866006816663 C229.88916322715596 155.6491295374078, 205.47353746460576 155.9360685339733, 183.90557744010076 155.08205756506817 C162.33761741559576 154.22804659616304, 140.81804615329094 152.08402650241183, 121.73183381271383 148.96253486823548 C102.64562147213674 145.84104323405913, 85.10447702363498 141.84402652431834, 69.38830339663818 136.35310776001 C53.67212976964138 130.86218899570167, 38.274994744240125 122.98098349514946, 27.434792050733023 116.01702228238545 C16.59458935722592 109.05306106962145, 8.623567522945986 102.38305969255715, 4.3470872355955805 94.56934048342596 C0.07060694824517544 86.75562127429477, -0.49590021414764385 77.23499563592652, 1.7759103266305942 69.13470702759827 C4.047720867408833 61.03441841927002, 9.20039769519301 53.14719262977244, 17.977950480265008 45.96760883345646 C26.755503265337005 38.78802503714048, 39.986246857615754 32.26175197014028, 54.44122703706259 26.057204249702387 C68.89620721650942 19.852656529264493, 86.38510217909294 12.858952027700461, 104.707831556946 8.740322510829088 C123.03056093479907 4.621692993957715, 143.61917201602026 2.487601167506777, 164.37760330418095 1.345427148474144 C185.13603459234164 0.2032531294415112, 208.62460145729216 1.292361458416766, 229.25841928591012 1.8872783966332918 C249.8922371145281 2.4821953348498176, 278.959046494232 3.7628235784378363, 288.18051027588865 4.914928777773298 C297.4019740575453 6.06703397710876, 286.2044596009303 7.384453189004351, 284.58720197585023 8.79990959264606" stroke="#000000" stroke-width="1" fill="none"></path></g><g transform="translate(463.4266570053995 82.33333969116211) rotate(0 112.5 12.5)"><text x="0" y="18" font-family="Virgil, Segoe UI Emoji" font-size="20px" fill="#000000" text-anchor="start" style="white-space: pre;" direction="ltr">execution environment 1</text></g><g><g transform="translate(320.4266570053995 60.33333969116211) rotate(0 43.46931228968782 7.850623898589987)"><path d="M-0.030766955763101622 0.44827835932374005 C14.714258718738952 3.0159455813467506, 73.81354197685917 12.251431635767222, 88.44468291625381 14.689050487428904 M-1.5060583368781955 -0.361979447370395 C13.122084527925278 2.445580814415589, 73.00203264575762 13.26451003276743, 87.73009598365985 16.06322724455036" stroke="#000000" stroke-width="1" fill="none"></path></g><g transform="translate(320.4266570053995 60.33333969116211) rotate(0 43.46931228968782 7.850623898589987)"><path d="M58.89123102413788 21.771141738749435 C66.4685253783545 19.15156316505578, 75.92309328552376 18.815632062301663, 88.6061551246699 16.31402294048108 M57.740688606596734 21.93810461007743 C65.26949042500891 19.15079146065009, 70.10322583337351 19.751183014494927, 87.5916275858786 16.055197945693507" stroke="#000000" stroke-width="1" fill="none"></path></g><g transform="translate(320.4266570053995 60.33333969116211) rotate(0 43.46931228968782 7.850623898589987)"><path d="M62.620456824872264 1.591625458298692 C68.96633439201742 4.982112702877985, 77.3100501921329 10.657203559440497, 88.6061551246699 16.31402294048108 M61.46991440733112 1.7585883296266882 C68.11590351942247 3.1626315231393036, 72.17413928632355 7.95939210277901, 87.5916275858786 16.055197945693507" stroke="#000000" stroke-width="1" fill="none"></path></g></g><g transform="translate(212.92665700539948 338.8333396911621) rotate(0 38.5 12.5)"><text x="0" y="18" font-family="Virgil, Segoe UI Emoji" font-size="20px" fill="#000000" text-anchor="start" style="white-space: pre;" direction="ltr">provider</text></g><g transform="translate(409.4266570053995 218.3333396911621) rotate(0 206 78)"><path d="M123.49648512570963 6.2597620367624955 C140.6840860171412 1.9134505911950113, 164.94609362332596 1.3444440080979043, 186.1328295524443 0.5586216723826567 C207.31956548156262 -0.22720066333259104, 229.82056115210258 -0.19962505089162863, 250.61690070041954 1.544828022471009 C271.4132402487365 3.2892810958336467, 292.5627339760671 6.743179115623647, 310.9108668423461 11.025340112558482 C329.2589997086251 15.307501109493316, 346.7622706773402 21.17940080016364, 360.7056978980934 27.237794004080015 C374.64912511884654 33.29618720799639, 386.18796108203105 40.21893466054775, 394.57143016686496 47.375699336056734 C402.95489925169886 54.532464011565715, 408.8787270484892 62.31256278578307, 411.00651240709686 70.1783820571339 C413.1342977657045 78.04420132848473, 412.0991907634396 86.54501706161756, 407.3381423185108 94.5706149641617 C402.577093873582 102.59621286670586, 393.4543163590624 111.29824093951459, 382.44022173752404 118.33196947239875 C371.4261271159857 125.36569800528292, 357.47484417183995 131.59588306045697, 341.2535745892808 136.77298616146675 C325.03230500672163 141.95008926247652, 304.67125218342704 146.10528309369926, 285.11260424216897 149.3945880784574 C265.5539563009109 152.68389306321552, 245.07355152004206 155.77411640838778, 223.9016869417325 156.5088160700156 C202.72982236342293 157.2435157316434, 178.95875230621536 155.7486926155115, 158.0814167723116 153.80278604822428 C137.20408123840784 151.85687948093707, 116.8155581778338 148.89267461242972, 98.63767373830996 144.8333766662924 C80.45978929878612 140.77407872015507, 62.93867436966357 135.5648619310795, 49.01411013516855 129.44699837140033 C35.08954590067353 123.32913481172116, 23.048774419034036 115.65535186325593, 15.09028833133982 108.12619530821739 C7.1318022436456046 100.59703875317885, 2.6649692873222746 92.2201293241579, 1.2631936090032525 84.27205904116913 C-0.13858206931576933 76.32398875818036, 1.6148104609524028 68.39421033191074, 6.67963426142569 60.43777361028479 C11.744458061898978 52.48133688865884, 20.71993957192705 43.60220848719945, 31.652136411842974 36.53343871141341 C42.5843332517589 29.46466893562737, 55.904456298373674 23.10507269595987, 72.27281530092122 18.025154955568546 C88.64117430346877 12.945237215177222, 118.92431665792516 8.02993058634304, 129.8622904271283 6.05393226906547 C140.80026419633145 4.077933951787899, 136.8014074843163 5.14211589045527, 137.9006579161401 6.169165051903121 M121.0608070852605 6.6383991725839735 C138.41707198838756 2.458543669183367, 162.83202749729966 1.6139324675272373, 184.01321713290704 0.5439055895369336 C205.19440676851443 -0.5261212884533701, 227.41884291837619 -1.4816580001673902, 248.14794489890477 0.21823790464215165 C268.87704687943335 1.9181338094516935, 289.8154888464711 6.3642539943994665, 308.3878290160786 10.743281018394185 C326.96016918568614 15.122308042388905, 345.18796384604013 20.439646031852693, 359.58198591654974 26.492400048610463 C373.97600798705935 32.54515406536823, 385.975864966936 39.932702411340074, 394.75196143913615 47.0598051189408 C403.5280579113363 54.18690782654153, 410.080404255754 61.40706032210501, 412.23856474975076 69.25501629421483 C414.39672524374754 77.10297226632464, 412.4183678682473 86.33305769026175, 407.70092440311686 94.1475409515997 C402.9834809379864 101.96202421293764, 394.80273183994916 109.15646155185993, 383.933903958968 116.14191586224244 C373.0650760779869 123.12737017262495, 358.6277715306254 130.38245345462772, 342.48795711722994 136.0602668138947 C326.34814270383447 141.7380801731617, 306.8558139894562 147.15114129240817, 287.09501747859514 150.20879601784435 C267.3342209677341 153.26645074328053, 244.82237631820755 153.78170400032573, 223.92317805206358 154.4061951665118 C203.0239797859196 155.03068633269785, 182.39437304888008 155.76537400340916, 161.6998278817313 153.95574301496072 C141.0052827145825 152.14611202651227, 118.03058948253255 147.69251614856364, 99.75590704917077 143.54840923582117 C81.481224615809 139.4043023230787, 65.80327216250976 135.10557183839077, 52.051733281560615 129.0911015385058 C38.300194400611474 123.07663123862082, 25.943528527913735 114.77696016484467, 17.24667376347594 107.46158743651128 C8.549818999038143 100.1462147081779, 1.9708759081591722 92.91844063293806, -0.12939530506616848 85.19886516850552 C-2.229666518291509 77.47928970407298, -0.5410323025479142 69.33521232964591, 4.645046484123895 61.144134649916076 C9.831125270795706 52.95305697018624, 19.976072885138088 43.04348335999226, 30.987077414964688 36.052399090126485 C41.99808194479129 29.061314820260712, 55.630724330947984 24.22483664411603, 70.71107366308351 19.197629030721444 C85.79142299521904 14.170421417326857, 112.524242598065 7.635645009520533, 121.46917340777786 5.889153409758961 C130.41410421749072 4.1426618099973895, 123.16927834107318 7.242989884130995, 124.38065852136067 8.718679432152015" stroke="#000000" stroke-width="1" fill="none"></path></g><g transform="translate(467.9266570053995 264.8333396911621) rotate(0 118 12.5)"><text x="0" y="18" font-family="Virgil, Segoe UI Emoji" font-size="20px" fill="#000000" text-anchor="start" style="white-space: pre;" direction="ltr">execution environment 2</text></g><g><g transform="translate(313.4266570053995 278.83333969116205) rotate(0 44.14368389432781 8.509265334354723)"><path d="M1.1558478869497775 1.1333509527146817 C15.62257084424297 3.750555785745383, 73.32267659877738 12.488766249269247, 87.98383849039674 14.867769940942527 M0.30352929825894526 0.6827562575507908 C14.507260519318905 3.5658613761235025, 72.25346294418287 14.236445318358017, 87.02730823422782 16.335774411158635" stroke="#000000" stroke-width="1" fill="none"></path></g><g transform="translate(313.4266570053995 278.83333969116205) rotate(0 44.14368389432781 8.509265334354723)"><path d="M59.421841807133376 21.793478226618653 C69.10792598205532 21.221372791007663, 81.76446551392004 19.008764328005725, 86.48619053999893 16.043556288527324 M57.05983688070518 21.453674611033684 C62.99650698746547 19.848886489882783, 70.75861060833525 20.186524326304767, 86.96300994533114 16.593071079524233" stroke="#000000" stroke-width="1" fill="none"></path></g><g transform="translate(313.4266570053995 278.83333969116205) rotate(0 44.14368389432781 8.509265334354723)"><path d="M62.79675858005662 1.551691270875816 C70.9965898109943 9.08097684010951, 82.30780293426585 14.937251961780467, 86.48619053999893 16.043556288527324 M60.43475365362842 1.2118876552908464 C65.84043225147849 3.9945344087072403, 72.87034726267845 8.72363041893199, 86.96300994533114 16.593071079524233" stroke="#000000" stroke-width="1" fill="none"></path></g></g></svg>
